<?xml version="1.0" encoding="utf-8"?>
<!-- Generator: Adobe Illustrator 22.1.0, SVG Export Plug-In . SVG Version: 6.00 Build 0)  -->
<svg version="1.1" id="Capa_1" xmlns="http://www.w3.org/2000/svg" xmlns:xlink="http://www.w3.org/1999/xlink" x="0px" y="0px"
	 viewBox="0 0 856 657" style="enable-background:new 0 0 856 657;" xml:space="preserve">
<style type="text/css">
	.st0{opacity:0.4;}
	.st1{fill:#523FCC;}
</style>
<g class="st0">
	<path class="st1" d="M460.6,373h-26.2c-6.9,0-12.4-5.6-12.4-12.4v-26.2c0-6.9,5.6-12.4,12.4-12.4h26.2c6.9,0,12.4,5.6,12.4,12.4
		v26.2C473,367.4,467.4,373,460.6,373z"/>
</g>
<g class="st0">
	<path class="st1" d="M527.6,295.5h-18.2c-6.9,0-12.4-5.6-12.4-12.4v-18.2c0-6.9,5.6-12.4,12.4-12.4h18.2c6.9,0,12.4,5.6,12.4,12.4
		v18.2C540,289.9,534.4,295.5,527.6,295.5z"/>
</g>
<g class="st0">
	<path class="st1" d="M397.6,343h-15.2c-6.9,0-12.4-5.6-12.4-12.4v-15.2c0-6.9,5.6-12.4,12.4-12.4h15.2c6.9,0,12.4,5.6,12.4,12.4
		v15.2C410,337.4,404.4,343,397.6,343z"/>
</g>
<g class="st0">
	<path class="st1" d="M547.6,374h-15.2c-6.9,0-12.4-5.6-12.4-12.4v-15.2c0-6.9,5.6-12.4,12.4-12.4h15.2c6.9,0,12.4,5.6,12.4,12.4
		v15.2C560,368.4,554.4,374,547.6,374z"/>
</g>
<g class="st0">
	<path class="st1" d="M365.6,394h-18.2c-6.9,0-12.4-5.6-12.4-12.4v-18.2c0-6.9,5.6-12.4,12.4-12.4h18.2c6.9,0,12.4,5.6,12.4,12.4
		v18.2C378,388.4,372.4,394,365.6,394z"/>
</g>
<g class="st0">
	<path class="st1" d="M452.6,300h-18.2c-6.9,0-12.4-5.6-12.4-12.4v-18.2c0-6.9,5.6-12.4,12.4-12.4h18.2c6.9,0,12.4,5.6,12.4,12.4
		v18.2C465,294.4,459.4,300,452.6,300z"/>
</g>
<g class="st0">
	<path class="st1" d="M432.6,431h-15.2c-6.9,0-12.4-5.6-12.4-12.4v-15.2c0-6.9,5.6-12.4,12.4-12.4h15.2c6.9,0,12.4,5.6,12.4,12.4
		v15.2C445,425.4,439.4,431,432.6,431z"/>
</g>
<g class="st0">
	<path class="st1" d="M501.6,178h-10.2c-6.9,0-12.4-5.6-12.4-12.4v-10.2c0-6.9,5.6-12.4,12.4-12.4h10.2c6.9,0,12.4,5.6,12.4,12.4
		v10.2C514,172.4,508.4,178,501.6,178z"/>
</g>
<g class="st0">
	<path class="st1" d="M382.6,254h-10.2c-6.9,0-12.4-5.6-12.4-12.4v-10.2c0-6.9,5.6-12.4,12.4-12.4h10.2c6.9,0,12.4,5.6,12.4,12.4
		v10.2C395,248.4,389.4,254,382.6,254z"/>
</g>
<g class="st0">
	<path class="st1" d="M385.6,471h-10.2c-6.9,0-12.4-5.6-12.4-12.4v-10.2c0-6.9,5.6-12.4,12.4-12.4h10.2c6.9,0,12.4,5.6,12.4,12.4
		v10.2C398,465.4,392.4,471,385.6,471z"/>
</g>
<g class="st0">
	<path class="st1" d="M501.6,341h-10.2c-6.9,0-12.4-5.6-12.4-12.4v-10.2c0-6.9,5.6-12.4,12.4-12.4h10.2c6.9,0,12.4,5.6,12.4,12.4
		v10.2C514,335.4,508.4,341,501.6,341z"/>
</g>
<g class="st0">
	<path class="st1" d="M295,296h-13c-8.3,0-15-6.7-15-15v-13c0-8.3,6.7-15,15-15h13c8.3,0,15,6.7,15,15v13
		C310,289.3,303.3,296,295,296z"/>
</g>
<g class="st0">
	<path class="st1" d="M296.6,362h-18.2c-6.9,0-12.4-5.6-12.4-12.4v-18.2c0-6.9,5.6-12.4,12.4-12.4h18.2c6.9,0,12.4,5.6,12.4,12.4
		v18.2C309,356.4,303.4,362,296.6,362z"/>
</g>
<g class="st0">
	<path class="st1" d="M435.6,230h-15.2c-6.9,0-12.4-5.6-12.4-12.4v-15.2c0-6.9,5.6-12.4,12.4-12.4h15.2c6.9,0,12.4,5.6,12.4,12.4
		v15.2C448,224.4,442.4,230,435.6,230z"/>
</g>
<g class="st0">
	<path class="st1" d="M492.6,245h-10.2c-6.9,0-12.4-5.6-12.4-12.4v-10.2c0-6.9,5.6-12.4,12.4-12.4h10.2c6.9,0,12.4,5.6,12.4,12.4
		v10.2C505,239.4,499.4,245,492.6,245z"/>
</g>
<g class="st0">
	<path class="st1" d="M612.6,359h-10.2c-6.9,0-12.4-5.6-12.4-12.4v-10.2c0-6.9,5.6-12.4,12.4-12.4h10.2c6.9,0,12.4,5.6,12.4,12.4
		v10.2C625,353.4,619.4,359,612.6,359z"/>
</g>
<g class="st0">
	<path class="st1" d="M565.6,239h-10.2c-6.9,0-12.4-5.6-12.4-12.4v-10.2c0-6.9,5.6-12.4,12.4-12.4h10.2c6.9,0,12.4,5.6,12.4,12.4
		v10.2C578,233.4,572.4,239,565.6,239z"/>
</g>
<g class="st0">
	<path class="st1" d="M579.6,307h-10.2c-6.9,0-12.4-5.6-12.4-12.4v-10.2c0-6.9,5.6-12.4,12.4-12.4h10.2c6.9,0,12.4,5.6,12.4,12.4
		v10.2C592,301.4,586.4,307,579.6,307z"/>
</g>
<g class="st0">
	<path class="st1" d="M318.6,239h-18.2c-6.9,0-12.4-5.6-12.4-12.4v-18.2c0-6.9,5.6-12.4,12.4-12.4h18.2c6.9,0,12.4,5.6,12.4,12.4
		v18.2C331,233.4,325.4,239,318.6,239z"/>
</g>
<g class="st0">
	<path class="st1" d="M355.6,195h-10.2c-6.9,0-12.4-5.6-12.4-12.4v-10.2c0-6.9,5.6-12.4,12.4-12.4h10.2c6.9,0,12.4,5.6,12.4,12.4
		v10.2C368,189.4,362.4,195,355.6,195z"/>
</g>
<g class="st0">
	<path class="st1" d="M348.6,313h-10.2c-6.9,0-12.4-5.6-12.4-12.4v-10.2c0-6.9,5.6-12.4,12.4-12.4h10.2c6.9,0,12.4,5.6,12.4,12.4
		v10.2C361,307.4,355.4,313,348.6,313z"/>
</g>
<g class="st0">
	<path class="st1" d="M315.6,440h-15.2c-6.9,0-12.4-5.6-12.4-12.4v-15.2c0-6.9,5.6-12.4,12.4-12.4h15.2c6.9,0,12.4,5.6,12.4,12.4
		v15.2C328,434.4,322.4,440,315.6,440z"/>
</g>
<g class="st0">
	<path class="st1" d="M501.6,405h-10.2c-6.9,0-12.4-5.6-12.4-12.4v-10.2c0-6.9,5.6-12.4,12.4-12.4h10.2c6.9,0,12.4,5.6,12.4,12.4
		v10.2C514,399.4,508.4,405,501.6,405z"/>
</g>
<g class="st0">
	<path class="st1" d="M570.6,436h-15.2c-6.9,0-12.4-5.6-12.4-12.4v-15.2c0-6.9,5.6-12.4,12.4-12.4h15.2c6.9,0,12.4,5.6,12.4,12.4
		v15.2C583,430.4,577.4,436,570.6,436z"/>
</g>
<g class="st0">
	<path class="st1" d="M448.6,500h-10.2c-6.9,0-12.4-5.6-12.4-12.4v-10.2c0-6.9,5.6-12.4,12.4-12.4h10.2c6.9,0,12.4,5.6,12.4,12.4
		v10.2C461,494.4,455.4,500,448.6,500z"/>
</g>
<g class="st0">
	<path class="st1" d="M513.6,475h-18.2c-6.9,0-12.4-5.6-12.4-12.4v-18.2c0-6.9,5.6-12.4,12.4-12.4h18.2c6.9,0,12.4,5.6,12.4,12.4
		v18.2C526,469.4,520.4,475,513.6,475z"/>
</g>
<g class="st0">
	<path class="st1" d="M408.6,176h-5.2c-6.9,0-12.4-5.6-12.4-12.4v-5.2c0-6.9,5.6-12.4,12.4-12.4h5.2c6.9,0,12.4,5.6,12.4,12.4v5.2
		C421,170.4,415.4,176,408.6,176z"/>
</g>
<g class="st0">
	<path class="st1" d="M365.6,136h-5.2c-6.9,0-12.4-5.6-12.4-12.4v-5.2c0-6.9,5.6-12.4,12.4-12.4h5.2c6.9,0,12.4,5.6,12.4,12.4v5.2
		C378,130.4,372.4,136,365.6,136z"/>
</g>
<g class="st0">
	<path class="st1" d="M416.6,132h-5.2c-6.9,0-12.4-5.6-12.4-12.4v-5.2c0-6.9,5.6-12.4,12.4-12.4h5.2c6.9,0,12.4,5.6,12.4,12.4v5.2
		C429,126.4,423.4,132,416.6,132z"/>
</g>
<g class="st0">
	<path class="st1" d="M457.6,162h-5.2c-6.9,0-12.4-5.6-12.4-12.4v-5.2c0-6.9,5.6-12.4,12.4-12.4h5.2c6.9,0,12.4,5.6,12.4,12.4v5.2
		C470,156.4,464.4,162,457.6,162z"/>
</g>
<g class="st0">
	<path class="st1" d="M545.6,191h-5.2c-6.9,0-12.4-5.6-12.4-12.4v-5.2c0-6.9,5.6-12.4,12.4-12.4h5.2c6.9,0,12.4,5.6,12.4,12.4v5.2
		C558,185.4,552.4,191,545.6,191z"/>
</g>
<g class="st0">
	<path class="st1" d="M238.6,252h-10.2c-6.9,0-12.4-5.6-12.4-12.4v-10.2c0-6.9,5.6-12.4,12.4-12.4h10.2c6.9,0,12.4,5.6,12.4,12.4
		v10.2C251,246.4,245.4,252,238.6,252z"/>
</g>
<g class="st0">
	<path class="st1" d="M233.6,318h-18.2c-6.9,0-12.4-5.6-12.4-12.4v-18.2c0-6.9,5.6-12.4,12.4-12.4h18.2c6.9,0,12.4,5.6,12.4,12.4
		v18.2C246,312.4,240.4,318,233.6,318z"/>
</g>
<g class="st0">
	<path class="st1" d="M211.6,193h-10.2c-6.9,0-12.4-5.6-12.4-12.4v-10.2c0-6.9,5.6-12.4,12.4-12.4h10.2c6.9,0,12.4,5.6,12.4,12.4
		v10.2C224,187.4,218.4,193,211.6,193z"/>
</g>
<g class="st0">
	<path class="st1" d="M257.6,196h-5.2c-6.9,0-12.4-5.6-12.4-12.4v-5.2c0-6.9,5.6-12.4,12.4-12.4h5.2c6.9,0,12.4,5.6,12.4,12.4v5.2
		C270,190.4,264.4,196,257.6,196z"/>
</g>
<g class="st0">
	<path class="st1" d="M272.6,151h-5.2c-6.9,0-12.4-5.6-12.4-12.4v-5.2c0-6.9,5.6-12.4,12.4-12.4h5.2c6.9,0,12.4,5.6,12.4,12.4v5.2
		C285,145.4,279.4,151,272.6,151z"/>
</g>
<g class="st0">
	<path class="st1" d="M313.6,160h-5.2c-6.9,0-12.4-5.6-12.4-12.4v-5.2c0-6.9,5.6-12.4,12.4-12.4h5.2c6.9,0,12.4,5.6,12.4,12.4v5.2
		C326,154.4,320.4,160,313.6,160z"/>
</g>
<g class="st0">
	<path class="st1" d="M269.5,391l0,18.2c0,6.9-5.6,12.4-12.4,12.4l-18.2,0c-6.9,0-12.4-5.6-12.4-12.4l0-18.2
		c0-6.9,5.6-12.4,12.4-12.4l18.2,0C264,378.5,269.5,384.1,269.5,391z"/>
</g>
<g class="st0">
	<path class="st1" d="M225.5,353.9l0,10.2c0,6.9-5.6,12.4-12.4,12.4l-10.2,0c-6.9,0-12.4-5.6-12.4-12.4l0-10.2
		c0-6.9,5.6-12.4,12.4-12.4l10.2,0C220,341.5,225.5,347.1,225.5,353.9z"/>
</g>
<g class="st0">
	<path class="st1" d="M282.5,471l0,10.2c0,6.9-5.6,12.4-12.4,12.4l-10.2,0c-6.9,0-12.4-5.6-12.4-12.4l0-10.2
		c0-6.9,5.6-12.4,12.4-12.4l10.2,0C276.9,458.5,282.5,464.1,282.5,471z"/>
</g>
<g class="st0">
	<path class="st1" d="M190.5,395.9l0,5.2c0,6.9-5.6,12.4-12.4,12.4l-5.2,0c-6.9,0-12.4-5.6-12.4-12.4l0-5.2
		c0-6.9,5.6-12.4,12.4-12.4l5.2,0C185,383.5,190.5,389.1,190.5,395.9z"/>
</g>
<g class="st0">
	<path class="st1" d="M179.6,325h-10.2c-6.9,0-12.4-5.6-12.4-12.4v-10.2c0-6.9,5.6-12.4,12.4-12.4h10.2c6.9,0,12.4,5.6,12.4,12.4
		v10.2C192,319.4,186.4,325,179.6,325z"/>
</g>
<g class="st0">
	<path class="st1" d="M176.6,279h-5.2c-6.9,0-12.4-5.6-12.4-12.4v-5.2c0-6.9,5.6-12.4,12.4-12.4h5.2c6.9,0,12.4,5.6,12.4,12.4v5.2
		C189,273.4,183.4,279,176.6,279z"/>
</g>
<g class="st0">
	<path class="st1" d="M227.6,468h-5.2c-6.9,0-12.4-5.6-12.4-12.4v-5.2c0-6.9,5.6-12.4,12.4-12.4h5.2c6.9,0,12.4,5.6,12.4,12.4v5.2
		C240,462.4,234.4,468,227.6,468z"/>
</g>
<g class="st0">
	<path class="st1" d="M184.6,235h-5.2c-6.9,0-12.4-5.6-12.4-12.4v-5.2c0-6.9,5.6-12.4,12.4-12.4h5.2c6.9,0,12.4,5.6,12.4,12.4v5.2
		C197,229.4,191.4,235,184.6,235z"/>
</g>
<g class="st0">
	<path class="st1" d="M602.6,486h-10.2c-6.9,0-12.4-5.6-12.4-12.4v-10.2c0-6.9,5.6-12.4,12.4-12.4h10.2c6.9,0,12.4,5.6,12.4,12.4
		v10.2C615,480.4,609.4,486,602.6,486z"/>
</g>
<g class="st0">
	<path class="st1" d="M663.6,349h-5.2c-6.9,0-12.4-5.6-12.4-12.4v-5.2c0-6.9,5.6-12.4,12.4-12.4h5.2c6.9,0,12.4,5.6,12.4,12.4v5.2
		C676,343.4,670.4,349,663.6,349z"/>
</g>
<g class="st0">
	<path class="st1" d="M612.6,427h-5.2c-6.9,0-12.4-5.6-12.4-12.4v-5.2c0-6.9,5.6-12.4,12.4-12.4h5.2c6.9,0,12.4,5.6,12.4,12.4v5.2
		C625,421.4,619.4,427,612.6,427z"/>
</g>
<g class="st0">
	<path class="st1" d="M654.6,408h-5.2c-6.9,0-12.4-5.6-12.4-12.4v-5.2c0-6.9,5.6-12.4,12.4-12.4h5.2c6.9,0,12.4,5.6,12.4,12.4v5.2
		C667,402.4,661.4,408,654.6,408z"/>
</g>
<g class="st0">
	<path class="st1" d="M635.6,295h-10.2c-6.9,0-12.4-5.6-12.4-12.4v-10.2c0-6.9,5.6-12.4,12.4-12.4h10.2c6.9,0,12.4,5.6,12.4,12.4
		v10.2C648,289.4,642.4,295,635.6,295z"/>
</g>
<g class="st0">
	<path class="st1" d="M614.6,245h-5.2c-6.9,0-12.4-5.6-12.4-12.4v-5.2c0-6.9,5.6-12.4,12.4-12.4h5.2c6.9,0,12.4,5.6,12.4,12.4v5.2
		C627,239.4,621.4,245,614.6,245z"/>
</g>
</svg>
